<?xml version="1.0" standalone="no"?>
<!DOCTYPE svg PUBLIC "-//W3C//DTD SVG 20010904//EN"
 "http://www.w3.org/TR/2001/REC-SVG-20010904/DTD/svg10.dtd">
<svg version="1.0" xmlns="http://www.w3.org/2000/svg"
 width="715.000000pt" height="715.000000pt" viewBox="0 0 715.000000 715.000000"
 preserveAspectRatio="xMidYMid meet">

<g transform="translate(0.000000,715.000000) scale(0.100000,-0.100000)"
fill="#000000" stroke="none">
<path d="M0 3575 l0 -3575 3575 0 3575 0 0 3575 0 3575 -3575 0 -3575 0 0
-3575z m4315 1375 l0 -285 -595 -6 c-644 -6 -654 -7 -809 -65 -144 -54 -303
-178 -396 -308 -52 -74 -117 -199 -145 -281 -74 -216 -78 -516 -9 -741 28 -93
108 -245 174 -329 62 -81 67 -74 -71 -101 -157 -31 -503 -22 -562 15 -15 9
-77 160 -104 250 -35 121 -57 245 -69 386 -38 442 137 914 465 1254 280 289
648 457 1076 491 52 4 309 7 570 6 l475 -1 0 -285z m853 -109 c73 -183 110
-287 103 -294 -6 -6 -39 0 -93 18 -45 14 -88 28 -94 30 -7 2 -30 -43 -54 -103
-84 -212 -205 -445 -313 -607 -56 -83 -175 -233 -269 -338 l-78 -87 0 -755 0
-755 -26 -10 c-35 -14 -978 -13 -1124 1 -356 33 -663 163 -935 398 -85 73
-218 220 -289 319 l-38 53 43 -8 c72 -13 397 -9 474 6 188 35 407 102 605 184
l105 43 5 314 5 315 245 0 245 0 7 -125 c4 -69 9 -140 10 -158 l3 -34 50 38
c28 20 65 51 83 67 l32 31 0 382 c0 210 3 389 6 398 5 14 36 16 244 16 180 0
241 -3 247 -12 4 -7 10 -53 13 -103 l5 -90 55 85 c111 173 290 558 290 624 0
10 -32 24 -92 43 -50 15 -93 33 -95 39 -2 6 67 65 154 130 257 194 317 235
338 232 15 -2 42 -60 133 -287z m-73 -1724 c-2 -687 -7 -1163 -12 -1168 -5 -5
-112 -8 -249 -7 l-239 3 -3 797 -2 797 47 53 c68 77 183 233 247 338 59 94
195 359 197 382 1 7 5 2 9 -12 5 -14 7 -546 5 -1183z"/>
<path d="M3785 3060 c-38 -21 -76 -44 -83 -50 -9 -8 -12 -67 -10 -248 l3 -237
85 0 85 0 3 288 c1 158 -1 287 -5 287 -5 -1 -39 -18 -78 -40z"/>
<path d="M2975 2744 c-98 -30 -181 -57 -184 -59 -7 -7 177 -91 249 -113 36
-11 84 -23 108 -27 l42 -7 0 131 c0 118 -2 131 -17 130 -10 0 -99 -25 -198
-55z"/>
</g>
</svg>
